<svg xmlns="http://www.w3.org/2000/svg" width="46" height="60" viewBox="0 0 45.6 60" fill="none"><path d="M22.5525 53.8168L22.3478 53.6939L1.96554 41.9314L0 40.7542V46.6712L22.3478 59.8772L22.5525 60L45.5043 46.6917V40.5494L41.9008 42.6378L22.5525 53.8168Z" fill="url(#paint0_linear_3503_2867)"></path><path d="M41.9008 30.4044L22.5525 41.5833L22.3478 41.4605L15.4172 37.468L22.6344 33.2708V27.1182L10.0939 34.3559L9.89937 34.2331V34.274L2.70262 30.1177L3.60349 29.5956L22.8904 18.4576V12.2744L0 25.552V28.5207V31.6942V34.4378L22.3478 47.6437L22.5525 47.7666L45.5043 34.4583V28.316L41.9008 30.4044Z" fill="url(#paint1_linear_3503_2867)"></path><path d="M22.9518 6.19348L23.1565 6.30609L40.8669 16.533L27.3435 24.344V30.517L45.5043 19.9829V19.2561V13.8406V13.339L23.1565 0.122846L22.9518 0L0 13.3185V19.4608L3.60349 17.3622L22.9518 6.19348Z" fill="url(#paint2_linear_3503_2867)"></path><path d="M0 40.7542V46.6712L22.3478 59.8772V53.6939L1.96554 41.9314L0 40.7542Z" fill="url(#paint3_linear_3503_2867)"></path><path d="M22.6355 27.1182L10.0949 34.3559L9.90039 34.2331V36.8231L13.207 38.7476L22.6355 33.2708V27.1182Z" fill="url(#paint4_linear_3503_2867)"></path><path d="M1.96554 29.698L0 28.5207V34.4378L22.3478 47.6437V41.4605L1.96554 29.698Z" fill="url(#paint5_linear_3503_2867)"></path><path d="M3.60349 17.3622L22.9518 6.19348L23.1565 6.30609V0.122846L22.9518 0L0 13.3185V19.4608L3.60349 17.3622Z" fill="url(#paint6_linear_3503_2867)"></path><path d="M0 25.552V31.6942L3.60349 29.5956L22.8904 18.4576V12.2744L0 25.552Z" fill="url(#paint7_linear_3503_2867)"></path><defs><linearGradient id="paint0_linear_3503_2867" x1="44.4704" y1="50.2747" x2="33.8032" y2="50.2747" gradientUnits="userSpaceOnUse"><stop stop-color="#027DE8"></stop><stop offset="1" stop-color="#009DEC"></stop></linearGradient><linearGradient id="paint1_linear_3503_2867" x1="44.4704" y1="30.0154" x2="33.8032" y2="30.0154" gradientUnits="userSpaceOnUse"><stop stop-color="#027DE8"></stop><stop offset="1" stop-color="#009DEC"></stop></linearGradient><linearGradient id="paint2_linear_3503_2867" x1="44.4704" y1="15.2636" x2="33.8032" y2="15.2636" gradientUnits="userSpaceOnUse"><stop stop-color="#027DE8"></stop><stop offset="1" stop-color="#009DEC"></stop></linearGradient><linearGradient id="paint3_linear_3503_2867" x1="23.0132" y1="50.3157" x2="-0.419724" y2="50.3157" gradientUnits="userSpaceOnUse"><stop stop-color="#027DE8"></stop><stop offset="1" stop-color="#009DEC"></stop></linearGradient><linearGradient id="paint4_linear_3503_2867" x1="23.0142" y1="32.9329" x2="-0.4187" y2="32.9329" gradientUnits="userSpaceOnUse"><stop stop-color="#027DE8"></stop><stop offset="1" stop-color="#009DEC"></stop></linearGradient><linearGradient id="paint5_linear_3503_2867" x1="23.0132" y1="38.0822" x2="-0.419724" y2="38.0822" gradientUnits="userSpaceOnUse"><stop stop-color="#027DE8"></stop><stop offset="1" stop-color="#009DEC"></stop></linearGradient><linearGradient id="paint6_linear_3503_2867" x1="23.0132" y1="9.7253" x2="-0.419724" y2="9.7253" gradientUnits="userSpaceOnUse"><stop stop-color="#027DE8"></stop><stop offset="1" stop-color="#009DEC"></stop></linearGradient><linearGradient id="paint7_linear_3503_2867" x1="23.0132" y1="21.9792" x2="-0.419724" y2="21.9792" gradientUnits="userSpaceOnUse"><stop stop-color="#027DE8"></stop><stop offset="1" stop-color="#009DEC"></stop></linearGradient></defs></svg>