<svg xmlns="http://www.w3.org/2000/svg" width="228" height="60" viewBox="0 0 228 60" fill="none"><path d="M63.524 27.7632H73.0445V31.4383H59.3574V11.527H73.0445V15.2431H63.524V19.8294H72.2972V23.5455H63.524V27.7734V27.7632Z" fill="#FFFFFF"></path><path d="M87.7341 31.4486H82.5746L75.3164 11.527H79.8515L85.1543 26.7292L90.447 11.527H94.9821L87.7239 31.4486H87.7341Z" fill="#FFFFFF"></path><path d="M98.8421 14.1989C100.91 12.1925 103.418 11.1892 106.387 11.1892C109.356 11.1892 111.864 12.1925 113.921 14.1989C115.979 16.2054 117.013 18.6419 117.013 21.5083C117.013 24.3747 115.979 26.8111 113.921 28.8278C111.864 30.8343 109.345 31.8478 106.387 31.8478C103.428 31.8478 100.91 30.8446 98.8421 28.8278C96.7742 26.8214 95.7402 24.3747 95.7402 21.5083C95.7402 18.6419 96.7742 16.2054 98.8421 14.1989ZM101.842 26.1662C103.08 27.4561 104.595 28.1112 106.387 28.1112C108.178 28.1112 109.683 27.4663 110.922 26.1662C112.161 24.8661 112.775 23.3202 112.775 21.5083C112.775 19.6963 112.161 18.0891 110.922 16.8094C109.683 15.54 108.168 14.9053 106.387 14.9053C104.606 14.9053 103.091 15.54 101.842 16.8094C100.603 18.0788 99.9784 19.6451 99.9784 21.5083C99.9784 23.3714 100.603 24.8763 101.842 26.1662Z" fill="#FFFFFF"></path><path d="M125.09 11.527V27.7324H134.611V31.4485H120.924V11.527H125.09Z" fill="#FFFFFF"></path><path d="M145.75 31.8273C145.638 31.8273 145.484 31.8273 145.289 31.8068C145.095 31.7863 144.706 31.7352 144.143 31.6328C143.57 31.5304 143.027 31.3871 142.495 31.2028C141.973 31.0186 141.379 30.7319 140.744 30.3327C140.099 29.9334 139.546 29.4728 139.086 28.9404C138.625 28.4081 138.246 27.7017 137.939 26.8213C137.632 25.9409 137.479 24.9582 137.479 23.873V11.527H141.625V23.7092C141.625 23.8218 141.635 23.9754 141.666 24.1699C141.696 24.3644 141.778 24.7227 141.921 25.2346C142.065 25.7464 142.27 26.1969 142.515 26.5756C142.771 26.9544 143.181 27.3025 143.754 27.6301C144.327 27.9474 144.993 28.1112 145.75 28.1112C146.508 28.1112 147.173 27.9679 147.736 27.671C148.309 27.3741 148.719 27.0056 148.975 26.5756C149.231 26.1354 149.425 25.7055 149.579 25.2653C149.732 24.8251 149.814 24.4668 149.835 24.1699L149.866 23.7195V11.5372H154.032V23.8833C154.032 24.9582 153.878 25.9409 153.571 26.8213C153.264 27.7017 152.865 28.4183 152.384 28.9507C151.903 29.483 151.37 29.9437 150.777 30.3429C150.193 30.7422 149.599 31.0288 149.006 31.2131C148.412 31.3973 147.869 31.5407 147.388 31.643C146.907 31.7454 146.508 31.7966 146.18 31.7966L145.73 31.8478L145.75 31.8273Z" fill="#FFFFFF"></path><path d="M163.418 15.2021H157.234V11.527H173.778V15.2021H167.584V31.4485H163.418V15.2021Z" fill="#FFFFFF"></path><path d="M177.178 31.4486V11.527H181.344V31.4486H177.178Z" fill="#FFFFFF"></path><path d="M188.346 14.1989C190.414 12.1925 192.922 11.1892 195.891 11.1892C198.86 11.1892 201.368 12.1925 203.425 14.1989C205.483 16.2054 206.517 18.6419 206.517 21.5083C206.517 24.3747 205.483 26.8111 203.425 28.8278C201.368 30.8343 198.849 31.8478 195.891 31.8478C192.932 31.8478 190.414 30.8446 188.346 28.8278C186.278 26.8214 185.244 24.3747 185.244 21.5083C185.244 18.6419 186.278 16.2054 188.346 14.1989ZM191.346 26.1662C192.584 27.4561 194.099 28.1112 195.891 28.1112C197.682 28.1112 199.187 27.4663 200.426 26.1662C201.665 24.8763 202.279 23.3202 202.279 21.5083C202.279 19.6963 201.665 18.0891 200.426 16.8094C199.187 15.54 197.672 14.9053 195.891 14.9053C194.11 14.9053 192.594 15.54 191.346 16.8094C190.107 18.0788 189.482 19.6451 189.482 21.5083C189.482 23.3714 190.107 24.8763 191.346 26.1662Z" fill="#FFFFFF"></path><path d="M223.808 24.1188V11.5168H227.954V31.4383H224.074L214.585 18.8364V31.4383H210.418V11.5271H214.298L223.808 24.129V24.1188Z" fill="#FFFFFF"></path><path d="M60.4121 48.1658V39.6075H63.7494C65.0086 39.6075 66.0426 40.017 66.8411 40.8258C67.6396 41.6345 68.0388 42.6582 68.0388 43.8969C68.0388 45.1356 67.6396 46.1491 66.8411 46.9578C66.0426 47.7666 65.0086 48.1658 63.7494 48.1658H60.4121ZM63.7494 41.2045H62.1934V46.5688H63.7494C64.507 46.5688 65.111 46.3231 65.5409 45.8317C65.9811 45.3404 66.1961 44.6954 66.1961 43.8969C66.1961 43.0984 65.9811 42.4535 65.5409 41.9519C65.1007 41.4502 64.507 41.2045 63.7494 41.2045Z" fill="#027FE8"></path><path d="M71.468 39.6075H73.6793L76.7914 48.1658H74.8463L74.3242 46.7019H70.7924L70.2908 48.1658H68.3457L71.4578 39.6075H71.468ZM72.5839 41.6345L71.3759 45.1049H73.8021L72.5941 41.6345H72.5839Z" fill="#027FE8"></path><path d="M78.8194 41.1841H76.168V39.6075H83.2726V41.1841H80.6109V48.1556H78.8194V41.1841Z" fill="#027FE8"></path><path d="M85.7493 39.6075H87.9605L91.0726 48.1658H89.1276L88.6055 46.7019H85.0736L84.572 48.1658H82.627L85.7391 39.6075H85.7493ZM86.8652 41.6345L85.6572 45.1049H88.0834L86.8754 41.6345H86.8652Z" fill="#027FE8"></path><path d="M104.166 48.1658H101.883L100.952 47.2649C100.634 47.613 100.225 47.8792 99.7129 48.0634C99.2011 48.2477 98.679 48.3399 98.1467 48.3399C97.9419 48.3399 97.7167 48.3194 97.471 48.2887C97.2253 48.2477 96.9591 48.1761 96.652 48.0532C96.3449 47.9304 96.0685 47.787 95.8331 47.6028C95.5976 47.4185 95.3929 47.1626 95.2188 46.8452C95.0448 46.5279 94.9629 46.1491 94.9629 45.7191C94.9629 45.0947 95.1472 44.5316 95.5157 44.03C95.8842 43.5181 96.2528 43.1496 96.6111 42.9142C96.1914 42.5047 95.9764 41.9723 95.9764 41.3172C95.9764 41.1636 95.9764 41.0203 96.0071 40.877C96.0276 40.7336 96.089 40.5391 96.1811 40.2832C96.2835 40.0273 96.4166 39.8021 96.6008 39.628C96.7851 39.454 97.0615 39.2902 97.4198 39.1469C97.7884 39.0138 98.2183 38.9421 98.7199 38.9421C99.2216 38.9421 99.6618 39.0343 100.03 39.2083C100.399 39.3823 100.675 39.5871 100.86 39.8021C101.034 40.0273 101.177 40.2832 101.279 40.5801C101.382 40.877 101.443 41.1022 101.453 41.2455C101.464 41.3888 101.474 41.5219 101.474 41.6447V41.9416H99.7334V41.6345C99.7334 41.3069 99.6413 41.0408 99.4673 40.836C99.2932 40.6313 99.0373 40.5289 98.7097 40.5289C98.3207 40.5289 98.0545 40.6108 97.9112 40.7848C97.7781 40.9486 97.7065 41.1841 97.7065 41.4605C97.7065 41.655 97.7781 41.8495 97.9112 42.044C98.0443 42.2385 98.2593 42.474 98.5561 42.7504C98.853 43.0268 99.0475 43.2213 99.1499 43.3339L100.685 44.8387C100.87 44.6135 100.962 44.1631 100.962 43.4772V43.4158H102.712V43.4977C102.712 44.6135 102.477 45.4939 102.006 46.1286L104.115 48.1658H104.166ZM99.7846 46.1082L97.6757 44.1017C97.0718 44.4804 96.7749 44.9616 96.7749 45.5656C96.7749 45.8932 96.8977 46.1696 97.1434 46.3948C97.3891 46.62 97.7269 46.7326 98.1569 46.7326C98.8325 46.7326 99.3751 46.5279 99.7846 46.1082Z" fill="#027FE8"></path><path d="M114.782 45.1561H116.707C116.42 46.0877 115.878 46.8452 115.069 47.439C114.26 48.0327 113.349 48.3296 112.326 48.3296C111.056 48.3296 109.981 47.8997 109.091 47.0397C108.2 46.1798 107.76 45.1254 107.76 43.8969C107.76 42.6685 108.2 41.6243 109.091 40.7541C109.981 39.8942 111.056 39.4642 112.326 39.4642C113.349 39.4642 114.26 39.7611 115.069 40.3446C115.868 40.9384 116.42 41.6959 116.707 42.6173H114.793C114.567 42.1361 114.24 41.7574 113.8 41.4707C113.36 41.1943 112.868 41.051 112.326 41.051C111.558 41.051 110.903 41.3274 110.37 41.87C109.838 42.4125 109.572 43.0882 109.572 43.8867C109.572 44.6852 109.838 45.3301 110.37 45.8932C110.903 46.4562 111.558 46.7224 112.315 46.7224C112.848 46.7224 113.339 46.5791 113.769 46.2924C114.209 46.0058 114.537 45.627 114.762 45.1561H114.782Z" fill="#027FE8"></path><path d="M119.298 40.7541C120.188 39.8942 121.263 39.4642 122.533 39.4642C123.802 39.4642 124.887 39.8942 125.768 40.7541C126.648 41.614 127.098 42.6582 127.098 43.8969C127.098 45.1356 126.658 46.1798 125.768 47.0397C124.887 47.8997 123.802 48.3296 122.533 48.3296C121.263 48.3296 120.178 47.8997 119.298 47.0397C118.407 46.1798 117.967 45.1254 117.967 43.8969C117.967 42.6685 118.407 41.6243 119.298 40.7541ZM120.588 45.8932C121.12 46.446 121.775 46.7224 122.543 46.7224C123.311 46.7224 123.956 46.446 124.488 45.8932C125.02 45.3404 125.286 44.6749 125.286 43.8867C125.286 43.0984 125.02 42.4125 124.488 41.87C123.956 41.3274 123.311 41.051 122.543 41.051C121.775 41.051 121.13 41.3274 120.588 41.87C120.045 42.4125 119.789 43.0882 119.789 43.8867C119.789 44.6852 120.055 45.3301 120.588 45.8932Z" fill="#027FE8"></path><path d="M133.433 47.0397H133.228L130.577 42.9244V48.1658H128.785V39.6075H130.607L133.341 43.8969L136.074 39.6075H137.896V48.1658H136.105V42.9244L133.443 47.0397H133.433Z" fill="#027FE8"></path><path d="M144.368 47.0397H144.164L141.512 42.9244V48.1658H139.721V39.6075H141.543L144.276 43.8969L147.01 39.6075H148.832V48.1658H147.04V42.9244L144.379 47.0397H144.368Z" fill="#027FE8"></path><path d="M154.114 48.3296C154.114 48.3296 154.002 48.3296 153.92 48.3194C153.838 48.3194 153.674 48.2887 153.428 48.2477C153.183 48.2068 152.947 48.1454 152.722 48.0635C152.497 47.9816 152.241 47.8587 151.965 47.6847C151.688 47.5106 151.453 47.3161 151.258 47.0909C151.064 46.8657 150.9 46.5586 150.767 46.1798C150.634 45.801 150.572 45.3813 150.572 44.9104V39.6076H152.354V44.8387C152.354 44.8387 152.354 44.9514 152.374 45.0333C152.394 45.1152 152.425 45.2687 152.487 45.4939C152.548 45.7191 152.63 45.9034 152.743 46.0672C152.855 46.231 153.029 46.3846 153.275 46.5176C153.521 46.6507 153.807 46.7224 154.135 46.7224C154.462 46.7224 154.749 46.661 154.995 46.5279C155.24 46.405 155.414 46.2412 155.527 46.057C155.64 45.8727 155.722 45.6782 155.783 45.4939C155.844 45.3097 155.885 45.1459 155.896 45.023V44.8285L155.906 39.5973H157.697V44.9002C157.697 45.3608 157.636 45.7806 157.503 46.1593C157.37 46.5381 157.196 46.8452 156.991 47.0704C156.786 47.2957 156.551 47.5004 156.305 47.6642C156.049 47.8382 155.803 47.9611 155.548 48.043C155.292 48.1249 155.066 48.1863 154.851 48.2272C154.636 48.2682 154.473 48.2887 154.329 48.2887L154.135 48.3091L154.114 48.3296Z" fill="#027FE8"></path><path d="M165.158 45.0128V39.5973H166.939V48.1556H165.27L161.196 42.7401V48.1556H159.404V39.5973H161.073L165.158 45.0128Z" fill="#027FE8"></path><path d="M168.771 48.1658V39.6075H170.563V48.1658H168.771Z" fill="#027FE8"></path><path d="M179.257 45.1561H181.182C180.895 46.0877 180.352 46.8452 179.544 47.439C178.735 48.0327 177.824 48.3296 176.8 48.3296C175.531 48.3296 174.456 47.8997 173.565 47.0397C172.675 46.1798 172.234 45.1254 172.234 43.8969C172.234 42.6685 172.675 41.6243 173.565 40.7541C174.456 39.8942 175.531 39.4642 176.8 39.4642C177.824 39.4642 178.735 39.7611 179.544 40.3446C180.342 40.9384 180.895 41.6959 181.182 42.6173H179.267C179.042 42.1361 178.715 41.7574 178.274 41.4707C177.834 41.1943 177.343 41.051 176.8 41.051C176.032 41.051 175.377 41.3274 174.845 41.87C174.313 42.4125 174.046 43.0882 174.046 43.8867C174.046 44.6852 174.313 45.3301 174.845 45.8932C175.377 46.446 176.032 46.7224 176.79 46.7224C177.322 46.7224 177.814 46.5791 178.244 46.2924C178.684 46.0058 179.011 45.627 179.237 45.1561H179.257Z" fill="#027FE8"></path><path d="M184.806 39.6075H187.017L190.129 48.1658H188.184L187.662 46.7019H184.13L183.629 48.1658H181.684L184.796 39.6075H184.806ZM185.922 41.6345L184.714 45.1049H187.14L185.932 41.6345H185.922Z" fill="#027FE8"></path><path d="M192.153 41.1841H189.502V39.6075H196.607V41.1841H193.945V48.1556H192.153V41.1841Z" fill="#027FE8"></path><path d="M198.062 48.1658V39.6075H199.854V48.1658H198.062Z" fill="#027FE8"></path><path d="M202.852 40.7541C203.743 39.8942 204.818 39.4642 206.087 39.4642C207.357 39.4642 208.442 39.8942 209.322 40.7541C210.203 41.614 210.653 42.6582 210.653 43.8969C210.653 45.1356 210.213 46.1798 209.322 47.0397C208.442 47.8997 207.357 48.3296 206.087 48.3296C204.818 48.3296 203.733 47.8997 202.852 47.0397C201.962 46.1798 201.521 45.1254 201.521 43.8969C201.521 42.6685 201.962 41.6243 202.852 40.7541ZM204.142 45.8932C204.675 46.446 205.33 46.7224 206.098 46.7224C206.865 46.7224 207.51 46.446 208.043 45.8932C208.575 45.3404 208.841 44.6749 208.841 43.8867C208.841 43.0984 208.575 42.4125 208.043 41.87C207.51 41.3274 206.865 41.051 206.098 41.051C205.33 41.051 204.685 41.3274 204.142 41.87C203.6 42.4125 203.344 43.0882 203.344 43.8867C203.344 44.6852 203.61 45.3301 204.142 45.8932Z" fill="#027FE8"></path><path d="M218.085 45.0128V39.5973H219.867V48.1556H218.198L214.124 42.7401V48.1556H212.332V39.5973H214.001L218.085 45.0128Z" fill="#027FE8"></path><path d="M224.73 48.3296C224.228 48.3296 223.778 48.2682 223.358 48.1454C222.938 48.0225 222.611 47.869 222.345 47.6744C222.078 47.4799 221.863 47.2957 221.71 47.1319C221.546 46.9681 221.423 46.7941 221.311 46.5995L222.57 45.6065C222.754 45.8727 223.051 46.1286 223.45 46.3641C223.849 46.5995 224.3 46.7224 224.801 46.7224C225.088 46.7224 225.324 46.6814 225.528 46.6098C225.733 46.5381 225.876 46.446 225.968 46.3334C226.061 46.2208 226.122 46.1184 226.163 46.0263C226.204 45.9341 226.224 45.8522 226.224 45.7806C226.224 45.5246 226.061 45.3097 225.743 45.1356C225.426 44.9616 225.027 44.7978 224.566 44.6545C224.105 44.5112 223.645 44.3474 223.184 44.1529C222.723 43.9584 222.334 43.6717 222.017 43.2725C221.7 42.8835 221.536 42.3921 221.536 41.8188C221.536 41.5833 221.587 41.3376 221.679 41.1022C221.771 40.8565 221.925 40.6006 222.14 40.3446C222.355 40.0785 222.672 39.8737 223.092 39.6997C223.522 39.5359 224.013 39.454 224.576 39.454C225.047 39.454 225.477 39.5154 225.876 39.628C226.276 39.7406 226.593 39.9044 226.828 40.0887C227.074 40.2832 227.258 40.447 227.381 40.5801C227.504 40.7132 227.606 40.8565 227.678 40.9998L226.521 41.8905C226.122 41.3274 225.446 41.051 224.484 41.051C224.167 41.051 223.89 41.1329 223.665 41.3069C223.44 41.481 223.327 41.6857 223.327 41.9314C223.327 42.2385 223.491 42.4842 223.808 42.6787C224.126 42.8732 224.515 43.037 224.975 43.1701C225.436 43.2929 225.897 43.4465 226.357 43.6103C226.818 43.7741 227.207 44.0505 227.525 44.4395C227.842 44.8285 228.006 45.3097 228.006 45.8932C228.006 46.1286 227.944 46.3743 227.832 46.6405C227.719 46.9067 227.545 47.1626 227.31 47.4185C227.074 47.6744 226.726 47.8997 226.276 48.0635C225.825 48.2273 225.303 48.3194 224.72 48.3194L224.73 48.3296Z" fill="#027FE8"></path><path d="M22.5525 53.8168L22.3478 53.6939L1.96554 41.9314L0 40.7542V46.6712L22.3478 59.8772L22.5525 60L45.5043 46.6917V40.5494L41.9008 42.6378L22.5525 53.8168Z" fill="url(#paint0_linear_3503_2867)"></path><path d="M41.9008 30.4044L22.5525 41.5833L22.3478 41.4605L15.4172 37.468L22.6344 33.2708V27.1182L10.0939 34.3559L9.89937 34.2331V34.274L2.70262 30.1177L3.60349 29.5956L22.8904 18.4576V12.2744L0 25.552V28.5207V31.6942V34.4378L22.3478 47.6437L22.5525 47.7666L45.5043 34.4583V28.316L41.9008 30.4044Z" fill="url(#paint1_linear_3503_2867)"></path><path d="M22.9518 6.19348L23.1565 6.30609L40.8669 16.533L27.3435 24.344V30.517L45.5043 19.9829V19.2561V13.8406V13.339L23.1565 0.122846L22.9518 0L0 13.3185V19.4608L3.60349 17.3622L22.9518 6.19348Z" fill="url(#paint2_linear_3503_2867)"></path><path d="M0 40.7542V46.6712L22.3478 59.8772V53.6939L1.96554 41.9314L0 40.7542Z" fill="url(#paint3_linear_3503_2867)"></path><path d="M22.6355 27.1182L10.0949 34.3559L9.90039 34.2331V36.8231L13.207 38.7476L22.6355 33.2708V27.1182Z" fill="url(#paint4_linear_3503_2867)"></path><path d="M1.96554 29.698L0 28.5207V34.4378L22.3478 47.6437V41.4605L1.96554 29.698Z" fill="url(#paint5_linear_3503_2867)"></path><path d="M3.60349 17.3622L22.9518 6.19348L23.1565 6.30609V0.122846L22.9518 0L0 13.3185V19.4608L3.60349 17.3622Z" fill="url(#paint6_linear_3503_2867)"></path><path d="M0 25.552V31.6942L3.60349 29.5956L22.8904 18.4576V12.2744L0 25.552Z" fill="url(#paint7_linear_3503_2867)"></path><defs><linearGradient id="paint0_linear_3503_2867" x1="44.4704" y1="50.2747" x2="33.8032" y2="50.2747" gradientUnits="userSpaceOnUse"><stop stop-color="#027DE8"></stop><stop offset="1" stop-color="#009DEC"></stop></linearGradient><linearGradient id="paint1_linear_3503_2867" x1="44.4704" y1="30.0154" x2="33.8032" y2="30.0154" gradientUnits="userSpaceOnUse"><stop stop-color="#027DE8"></stop><stop offset="1" stop-color="#009DEC"></stop></linearGradient><linearGradient id="paint2_linear_3503_2867" x1="44.4704" y1="15.2636" x2="33.8032" y2="15.2636" gradientUnits="userSpaceOnUse"><stop stop-color="#027DE8"></stop><stop offset="1" stop-color="#009DEC"></stop></linearGradient><linearGradient id="paint3_linear_3503_2867" x1="23.0132" y1="50.3157" x2="-0.419724" y2="50.3157" gradientUnits="userSpaceOnUse"><stop stop-color="#027DE8"></stop><stop offset="1" stop-color="#009DEC"></stop></linearGradient><linearGradient id="paint4_linear_3503_2867" x1="23.0142" y1="32.9329" x2="-0.4187" y2="32.9329" gradientUnits="userSpaceOnUse"><stop stop-color="#027DE8"></stop><stop offset="1" stop-color="#009DEC"></stop></linearGradient><linearGradient id="paint5_linear_3503_2867" x1="23.0132" y1="38.0822" x2="-0.419724" y2="38.0822" gradientUnits="userSpaceOnUse"><stop stop-color="#027DE8"></stop><stop offset="1" stop-color="#009DEC"></stop></linearGradient><linearGradient id="paint6_linear_3503_2867" x1="23.0132" y1="9.7253" x2="-0.419724" y2="9.7253" gradientUnits="userSpaceOnUse"><stop stop-color="#027DE8"></stop><stop offset="1" stop-color="#009DEC"></stop></linearGradient><linearGradient id="paint7_linear_3503_2867" x1="23.0132" y1="21.9792" x2="-0.419724" y2="21.9792" gradientUnits="userSpaceOnUse"><stop stop-color="#027DE8"></stop><stop offset="1" stop-color="#009DEC"></stop></linearGradient></defs></svg>